<?xml version="1.0" encoding="UTF-8" standalone="no"?>
<!-- Created with Inkscape (http://www.inkscape.org/) -->

<svg
   width="720"
   height="720"
   viewBox="0 0 190.5 190.5"
   version="1.1"
   id="svg1"
   inkscape:version="1.3 (0e150ed6c4, 2023-07-21)"
   sodipodi:docname="logo2.svg"
   xmlns:inkscape="http://www.inkscape.org/namespaces/inkscape"
   xmlns:sodipodi="http://sodipodi.sourceforge.net/DTD/sodipodi-0.dtd"
   xmlns="http://www.w3.org/2000/svg"
   xmlns:svg="http://www.w3.org/2000/svg">
  <sodipodi:namedview
     id="namedview1"
     pagecolor="#ffffff"
     bordercolor="#000000"
     borderopacity="0.25"
     inkscape:showpageshadow="2"
     inkscape:pageopacity="0.0"
     inkscape:pagecheckerboard="0"
     inkscape:deskcolor="#d1d1d1"
     inkscape:document-units="mm"
     inkscape:zoom="0.45543807"
     inkscape:cx="318.37479"
     inkscape:cy="438.0398"
     inkscape:window-width="1280"
     inkscape:window-height="961"
     inkscape:window-x="-8"
     inkscape:window-y="-8"
     inkscape:window-maximized="1"
     inkscape:current-layer="layer1" />
  <defs
     id="defs1" />
  <g
     inkscape:label="Capa 1"
     inkscape:groupmode="layer"
     id="layer1">
    <path
    fill="#ffffff"
       id="path1"
       style="fill:#ffffff;stroke:#000000;stroke-width:6.84422;stroke-linecap:round;stroke-opacity:0"
       d="M 95.250096,3.4221101 A 91.827896,91.827888 0 0 0 3.4221101,95.250096 91.827896,91.827888 0 0 0 12.362132,134.57173 c 4.263981,-1.22238 31.945954,-9.09126 43.690874,-12.41733 5.45974,-1.54614 10.1181,-2.86863 10.35234,-2.93883 0.34453,-0.10326 0.51493,-0.98911 0.89194,-4.63693 0.25631,-2.48005 0.40015,-4.57525 0.31935,-4.65605 -0.0808,-0.0808 -0.98371,0.56349 -1.99522,1.44436 -6.60397,5.75102 -11.25011,6.35107 -11.84011,5.86114 -1.01899,-0.84615 0.40206,-7.5282 2.98173,-14.02033 4.70697,-11.845824 15.21914,-26.612884 25.85011,-36.314594 13.9301,-12.71245 19.103584,-10.94464 19.406574,-12.04887 0.0359,-0.13091 0.19021,-2.08548 0.34261,-4.34341 0.57787,-8.56166 1.35578,-11.45814 3.67368,-13.6803 1.73786,-1.66606 3.60673,-2.30797 6.16706,-2.11821 1.88592,0.13976 2.05405,0.10846 2.61586,-0.4899 3.43917,-3.66282 9.35956,-3.4656 13.64672,0.45476 3.08256,2.81884 2.98738,4.44469 -0.26045,4.44469 -0.91609,0 -2.27788,-0.11649 -3.02566,-0.25839 l -1.3596,-0.25786 -1.19115,1.19217 c -1.68462,1.68556 -1.61182,2.20608 0.46302,3.30471 2.1163,1.12057 4.71234,2.73321 6.5009,4.03851 0.94706,0.69118 1.50814,0.94518 1.72083,0.77928 0.70573,-0.55047 2.05629,-0.83217 2.74143,-0.57154 0.60207,0.22906 0.66781,0.37193 0.53795,1.17254 -0.32482,2.00276 -3.84081,7.28359 -5.31854,7.98866 -0.87881,0.4193 -0.89162,0.45186 -1.00872,2.47582 -0.0997,1.7231 -0.29846,2.42931 -1.24489,4.42195 l -1.12654,2.37143 0.6165,1.96732 c 0.85788,2.73645 0.86389,7.15566 0.0134,10.12393 -1.62874,5.68469 -5.83127,10.90887 -11.20293,13.9268 -1.66178,0.93363 -1.52257,0.69157 -3.80287,6.61252 -0.80487,2.089934 -1.39698,3.907424 -1.31568,4.039034 0.0813,0.1316 0.52812,0.24198 0.9927,0.24598 1.26895,0.01 3.04716,0.47353 4.75992,1.24179 l 1.53272,0.68781 2.70268,-0.82837 c 2.51604,-0.7709 7.34724,-2.10587 11.70316,-3.23443 1.86432,-0.48302 49.16415,-13.920484 54.59357,-15.505004 A 91.827896,91.827888 0 0 0 95.250096,3.4221101 Z M 140.84835,19.577713 c 0.24466,0.0013 0.54743,0.10481 1.08728,0.311092 2.80893,1.073332 6.97479,4.745491 9.05732,7.984011 3.72639,5.79478 4.35488,14.05261 1.55236,20.39307 -0.37791,0.85498 -0.87959,1.76739 -1.11466,2.02727 -0.5881,0.65021 -1.99205,0.60965 -2.61172,-0.0754 -0.4821,-0.53302 -0.48245,-0.58201 -0.0109,-1.78801 1.89848,-4.85486 1.86731,-4.71024 1.87431,-8.78809 0.006,-3.50319 -0.0566,-4.01708 -0.70642,-5.85236 -0.39185,-1.10658 -1.15544,-2.77547 -1.69705,-3.7083 -1.2568,-2.16461 -4.24797,-5.11445 -6.5102,-6.42028 -0.96844,-0.559012 -1.963,-1.239832 -2.20968,-1.51257 -0.58407,-0.64573 -0.33025,-1.691805 0.55035,-2.269112 0.30766,-0.201686 0.49431,-0.3026 0.73897,-0.301273 z m -2.80499,5.787243 c 0.22106,-0.008 0.44716,0.0141 0.66662,0.0708 1.24352,0.3213 4.00931,2.428 5.39709,4.11138 4.11038,4.98589 4.91513,11.28746 2.16059,16.91679 -0.8124,1.66025 -0.93924,1.79097 -1.81332,1.86449 -0.65681,0.0552 -1.07587,-0.0707 -1.3901,-0.41806 -0.56279,-0.62228 -0.56751,-1.18068 -0.0191,-2.24173 0.70802,-1.36989 1.42265,-4.21239 1.42265,-5.65908 0,-4.71286 -2.21822,-8.55806 -6.41925,-11.12852 -1.61543,-0.98849 -2.05114,-1.75923 -1.53737,-2.71973 0.25171,-0.47059 0.86902,-0.77113 1.53221,-0.79634 z m -3.18379,5.83065 c 0.47992,0.0209 1.02822,0.22933 1.65675,0.62632 1.6198,1.02309 2.92738,2.47434 3.68401,4.08864 0.58728,1.253 0.6935,1.8447 0.6935,3.86333 0,2.5897 -0.60538,4.70967 -1.47898,5.17746 -1.14395,0.61256 -2.62413,0.0158 -2.62413,-1.05782 0,-0.26262 0.17901,-0.98419 0.39739,-1.60352 0.53323,-1.51216 0.49202,-3.60674 -0.0966,-4.89995 -0.43294,-0.95112 -1.04772,-1.59756 -3.31608,-3.4892 -0.82557,-0.68846 -0.88366,-1.4822 -0.16123,-2.20503 0.35403,-0.35422 0.76549,-0.52112 1.2454,-0.50023 z m 52.05109,58.77833 c -4.03783,1.06718 -15.51904,4.2637 -31.51229,8.80618 l -34.70589,9.857284 -0.29404,0.9741 c -0.3023,1.00069 -1.61586,2.33681 -2.29702,2.33681 -0.21082,0 -0.49499,-0.26807 -0.632,-0.59583 -0.26604,-0.63643 -0.91024,-1.5229 -1.10639,-1.5229 -0.0653,0 -0.5681,0.69526 -1.11776,1.54512 -1.11157,1.71859 -2.0818,2.42776 -3.32073,2.42776 -0.93723,0 -1.32634,-0.59663 -0.86817,-1.33067 0.3377,-0.54104 0.17172,-0.78806 -0.52865,-0.78806 -1.02186,0 -7.24389,1.93258 -7.76955,2.41328 -0.37602,0.34388 -0.94135,0.49972 -1.81229,0.49972 -0.69617,0 -1.920704,0.19053 -2.720774,0.42323 -1.15764,0.33672 -1.42972,0.51825 -1.33273,0.88935 0.32717,1.2518 -1.05419,1.75855 -2.24328,0.82269 -0.64999,-0.51157 -0.66339,-0.51063 -3.17086,0.22376 -1.38508,0.40565 -2.63965,0.8119 -2.78743,0.9033 -0.14778,0.0914 -0.35102,1.09321 -0.45165,2.22622 -0.35515,3.99864 -1.22814,10.31159 -1.89549,13.70459 -1.33638,6.79448 -2.64738,9.16728 -4.61471,8.35194 -1.42761,-0.59164 -1.39751,-2.14993 -0.72399,-7.05435 0.10274,-0.53271 -0.007,-0.83486 -0.18603,-0.65732 -0.14656,0.14568 -0.35513,1.97785 -0.68575,3.8716 -1.23242,7.0593 -5.60193,18.25385 -8.74675,24.63984 -3.23947,6.57818 -6.93195,12.0519 -8.60206,11.41067 -0.62271,-0.23909 -0.44137,-1.13461 0.81339,-4.01784 0.65556,-1.50639 1.89272,-4.37071 2.49545,-6.44664 1.15942,-3.99322 1.35624,-5.23579 0.47336,-5.43171 -0.54516,-0.12098 -0.86594,0.20059 -1.65106,1.96164 -1.92227,4.31169 -4.75295,9.63487 -7.76335,12.98526 -0.43366,0.47263 -3.69185,3.46963 -3.60547,1.51567 0.0658,-1.48758 2.64948,-5.75729 3.88762,-8.67389 2.85015,-6.71393 4.84551,-12.42739 6.24871,-20.39411 0.67742,-3.846 1.38432,-10.11761 1.76372,-13.90509 0.3794,-3.7875 0.75572,-7.10699 0.83613,-7.3763 0.11386,-0.3813 0.038,-0.45705 -0.34314,-0.34158 -0.26916,0.0815 -7.04159,2.0093 -15.04921,4.28346 -32.014865,9.09218 -35.188107,10.00976 -36.190035,10.34356 a 91.827896,91.827888 0 0 0 80.549605,48.22341 91.827896,91.827888 0 0 0 91.827994,-91.827994 91.827896,91.827888 0 0 0 -0.16743,-5.27616 z M 99.702536,100.03276 c -0.18463,-0.004 -0.5928,3.45181 -0.5457,4.62039 0.0451,1.11993 1.273614,2.22064 3.258204,2.91972 2.12267,0.74774 2.08049,0.74199 2.08049,0.2806 0,-0.54078 -4.45735,-7.81371 -4.792994,-7.82071 z m -10.54871,2.24844 -0.006,1.87844 c -0.003,1.03326 -0.0841,3.32745 -0.17932,5.09839 h 5.2e-4 c -0.12845,2.39015 -0.0932,3.21996 0.13798,3.21996 0.58805,0 4.23615,-1.64848 4.35942,-1.9699 0.0678,-0.17678 -0.32471,-1.02727 -0.8723,-1.89033 -0.54759,-0.86307 -1.54555,-2.6422 -2.21795,-3.95324 z" />
  </g>
</svg>
